<?xml version="1.0" encoding="utf-8"?>
<!-- Generator: Adobe Illustrator 24.1.1, SVG Export Plug-In . SVG Version: 6.00 Build 0)  -->
<svg version="1.1" id="Capa_1" xmlns="http://www.w3.org/2000/svg" xmlns:xlink="http://www.w3.org/1999/xlink" x="0px" y="0px"
	 viewBox="0 0 100 100" style="enable-background:new 0 0 100 100;" xml:space="preserve">
<style type="text/css">
	.st0{fill:#3C3C3B;}
	.st1{clip-path:url(#SVGID_2_);}
	.st2{clip-path:url(#SVGID_4_);fill:#3C3C3B;}
	.st3{clip-path:url(#SVGID_6_);fill:#FFFFFF;}
	.st4{clip-path:url(#SVGID_6_);fill:none;stroke:#1D1D1B;stroke-width:0.25;stroke-miterlimit:10;}
	.st5{clip-path:url(#SVGID_8_);fill:#913E4C;}
	.st6{clip-path:url(#SVGID_10_);fill:#F4E8E4;}
	.st7{clip-path:url(#SVGID_12_);fill:#3E2D2B;}
	.st8{clip-path:url(#SVGID_14_);fill:#B81738;}
	.st9{clip-path:url(#SVGID_16_);fill:#D94363;}
	.st10{clip-path:url(#SVGID_18_);fill:#F9C5B8;}
	.st11{clip-path:url(#SVGID_20_);fill:#F8C8D8;}
</style>
<g>
	<path class="st0" d="M96.38,53.51c0.02-0.54,0.08-0.73,0.35-0.77l0.13-0.02l0.39-1.29l-0.61-0.03l-0.09-0.34
		c0.15-0.14,0.23-0.31,0.31-0.46l0.03-0.06c0.11-0.22,0.23-0.51,0.13-0.79c-0.07-0.18-0.22-0.32-0.46-0.42
		c-0.01-0.04-0.02-0.1-0.03-0.24l-0.04-0.5c-0.16-1.82-0.31-3.65-0.45-5.47c-0.01-0.15,0.03-0.31,0.08-0.52
		c0.03-0.12,0.06-0.25,0.09-0.4l0.02-0.09l-0.06-0.07c-0.35-0.44-0.72-1.36-0.62-1.56c0.24-0.51,0.1-0.96-0.03-1.36
		c-0.06-0.2-0.13-0.4-0.14-0.59c-0.03-0.43-0.18-0.84-0.34-1.24c-0.07-0.18-0.14-0.36-0.19-0.53c-0.03-0.09-0.05-0.19-0.07-0.28
		c-0.04-0.18-0.08-0.36-0.17-0.54c-0.28-0.59-0.58-1.16-0.87-1.73l-0.26-0.51l0.5-0.43l-0.07-0.14c-0.1-0.22-0.22-0.43-0.34-0.63
		c-0.24-0.42-0.47-0.81-0.48-1.18c-0.02-0.83-0.4-1.34-0.83-1.83c-0.13-0.15-0.29-0.24-0.45-0.34c-0.15-0.09-0.29-0.17-0.36-0.27
		c-0.28-0.43-0.51-0.88-0.74-1.31c-0.07-0.15-0.15-0.29-0.22-0.42c0.02-0.08,0.04-0.15,0.06-0.22c0.06-0.23,0.12-0.44,0.01-0.61
		c-0.16-0.25-0.29-0.51-0.42-0.8c-0.23-0.51-0.47-1.03-0.96-1.43c-0.37-0.3-0.54-0.74-0.72-1.21c-0.07-0.17-0.13-0.34-0.21-0.51
		c-0.17-0.38-0.53-0.7-0.93-0.84c-0.22-0.08-0.44-0.1-0.63-0.05l-0.28-0.37l1.17-1.57l-1.28,0.93c-0.03-0.18-0.07-0.36-0.14-0.54
		c-0.12-0.3-0.29-0.57-0.49-0.87c-0.27-0.4-0.61-0.74-1.1-1.11c-0.51-0.37-0.98-0.83-1.43-1.28c-0.19-0.19-0.39-0.38-0.59-0.57
		c-0.07-0.07-0.15-0.13-0.22-0.19c-0.15-0.13-0.3-0.24-0.38-0.38c-0.38-0.65-0.94-1.11-1.48-1.55c-0.29-0.24-0.59-0.49-0.86-0.76
		c-0.09-0.09-0.22-0.12-0.34-0.14c-0.39-0.08-0.79-0.16-1.15-0.23l-0.12-0.02l-0.14-1.5l-0.7,0.47c-0.07-0.09-0.14-0.17-0.23-0.23
		c-0.17-0.11-0.34-0.22-0.52-0.33c-0.25-0.15-0.5-0.31-0.76-0.5c-0.13-0.09-0.48-0.34-0.52-0.41c0.13-0.66-0.27-0.95-0.59-1.18
		c-0.06-0.05-0.13-0.09-0.19-0.14l-0.13-0.11l-0.53,0.46c-0.19-0.11-0.35-0.28-0.52-0.45c-0.32-0.32-0.67-0.67-1.24-0.69
		c-0.03-0.09-0.07-0.19-0.16-0.26l-0.23-0.18c-0.31-0.24-0.63-0.5-1-0.66c-0.22-0.1-0.47-0.01-0.7,0.07
		c-0.08,0.03-0.17,0.06-0.25,0.08l-0.08,0.02l-0.03,0.04c-0.01,0-0.02-0.01-0.03-0.01C69.06,7.1,68.67,6.9,68.28,6.7
		c-0.86-0.44-1.75-0.89-2.68-1.17c-2.25-0.66-4.92-1.4-7.69-1.86c-2.13-0.35-4.45-0.55-7.53-0.65c-1.54-0.04-3.11,0.12-4.63,0.27
		l-0.68,0.07c-2.83,0.29-5.12,0.77-7.2,1.51c-0.62,0.22-1.27,0.4-1.9,0.58c-0.26,0.07-0.53,0.15-0.79,0.22
		c-1.05,0.3-2.08,0.72-3.16,1.28c-1.44,0.74-3.06,1.49-4.95,2.28c-0.2,0.08-0.39,0.22-0.57,0.35c-0.48,0.36-0.78,0.54-1.2,0.13
		l-0.12-0.12l-0.14,0.1c-0.07,0.05-0.13,0.1-0.18,0.15c-0.06,0.06-0.14,0.13-0.18,0.13c-0.56,0.08-0.8,0.38-0.76,0.96
		c0.01,0.12-0.09,0.32-0.18,0.41c-0.47,0.38-0.98,0.76-1.46,1.11l-0.89,0.66c-0.47,0.35-0.96,0.72-1.45,1.05
		c-0.14,0.09-0.32,0.15-0.5,0.21c-0.09,0.03-0.19,0.06-0.28,0.09l-0.07,0.04c-0.12,0.11-0.16,0.29-0.19,0.45
		c-0.02,0.09-0.04,0.22-0.08,0.25c-1.01,0.86-1.75,1.67-2.3,2.51c-0.68,0.33-1.12,0.88-1.55,1.41c-0.16,0.2-0.32,0.4-0.49,0.58
		c-0.37,0.4-0.68,0.87-0.98,1.32c-0.18,0.27-0.36,0.55-0.56,0.81c-0.23,0.3-0.47,0.6-0.71,0.89c-0.38,0.46-0.77,0.94-1.11,1.45
		c-1.32,2.04-2.34,3.72-3.22,5.29c-0.38,0.68-0.68,1.42-0.96,2.13c-0.13,0.33-0.26,0.65-0.4,0.97c-0.08,0.2-0.17,0.4-0.26,0.6
		c-0.19,0.43-0.37,0.85-0.54,1.28c-0.26,0.67-0.52,1.36-0.75,2.06c-0.1,0.3-0.18,0.61-0.26,0.91c-0.02,0.06-0.03,0.12-0.05,0.18
		l-0.14-0.05l-0.15,2.07l1.73,0.67l0.14-0.75c0.07-0.03,0.13-0.05,0.18-0.06c1.68-0.15,3.36-0.3,5.04-0.44
		c0.17-0.02,0.23,0.01,0.23,0.02c0.64,0.4,1.25,0.21,1.78,0.04c0.13-0.04,0.26-0.08,0.39-0.11c0.85-0.22,1.72-0.33,2.54-0.42
		c0.09-0.01,0.21,0.04,0.34,0.09c0.16,0.06,0.34,0.13,0.53,0.11c2.52-0.28,4.61-0.54,6.59-0.81c0.47-0.07,0.95-0.18,1.4-0.28
		c0.38-0.09,0.78-0.18,1.17-0.24c0.53-0.09,1.07-0.13,1.6-0.17c0.18-0.01,0.37-0.03,0.55-0.05c0.28-0.02,0.56-0.05,0.83-0.07
		l0.08,0.57l4.51-0.55l0.12-0.03l-0.74,0.74l0.8-0.25c0.15-0.05,0.29-0.1,0.43-0.14c0.26-0.09,0.49-0.17,0.73-0.22
		c0.45-0.09,0.91-0.16,1.37-0.24c0.58-0.1,1.15-0.2,1.73-0.31c0.18-0.04,0.34-0.14,0.48-0.23c0.13-0.08,0.27-0.16,0.36-0.17
		c0.56,0.01,1.12-0.08,1.65-0.18c0.97-0.17,1.88-0.33,2.83,0.1c0.44,0.2,0.95,0.18,1.44,0.17c0.26-0.01,0.52-0.01,0.76,0.01
		l0.55,0.05c0.76,0.07,1.55,0.14,2.29,0.33c0.47,0.11,0.93,0.3,1.38,0.47c0.44,0.17,0.9,0.36,1.36,0.47
		c0.92,0.24,1.88,0.39,2.81,0.54l0.63,0.1c0.16,0.02,0.3-0.06,0.45-0.14c0.06-0.04,0.13-0.08,0.21-0.11l0.6-0.27l-0.72-0.12h1.47
		l-0.4,0.6l0.45-0.06c0.47-0.06,0.94-0.13,1.39-0.19c1.07-0.15,2.09-0.29,3.1-0.4c0.43-0.05,0.71-0.17,0.88-0.39
		c0.16-0.21,0.21-0.5,0.14-0.87c-0.03-0.2-0.01-0.35,0.07-0.46c0.13-0.17,0.37-0.24,0.56-0.27c0.64-0.09,1.26-0.12,1.87-0.08
		l0.39,0.03c1.01,0.08,2.05,0.15,3.08-0.14c1.37-0.39,2.91-0.99,3.98-2.43c0.39-0.53,0.84-0.85,1.46-1.05
		c0.51-0.17,0.8-0.13,1.07,0.12c0.31,0.3,0.61,0.65,0.92,1.07c0.2,0.27,0.38,0.57,0.57,0.88c0.09,0.15,0.18,0.3,0.28,0.46l0.17,0.27
		l0.17-0.27c0.15-0.24,0.29-0.29,0.34-0.28c0.01,0,0.02,0.02,0.03,0.07c0.09,0.77,0.61,1.14,1.07,1.48
		c0.12,0.09,0.24,0.17,0.35,0.27c0.96,0.79,1.9,1.69,2.04,3.1c0.02,0.26,0.16,0.54,0.41,0.87c0.23,0.31,0.48,0.6,0.73,0.89
		c0.18,0.21,0.36,0.42,0.53,0.64c1.58,1.97,3.16,3.95,4.72,5.94c0.53,0.67,1.08,1.39,1.58,2.14c0.33,0.5,0.44,0.89,0,1.41
		c-1.15,1.38-2.5,1.98-4.13,1.82c-1.32-0.13-2.64-0.27-3.96-0.41l-2.47-0.26c-0.42-0.04-0.83-0.08-1.25-0.13
		c-0.29-0.03-0.57-0.07-0.86-0.11c-0.45-0.06-0.92-0.13-1.39-0.17l-0.53-0.05c-0.89-0.08-1.81-0.16-2.72-0.15
		c-0.76,0.02-1.74,0.08-2.62,0.4c-1.58,0.59-3.08,1.51-4.46,2.75c-3.23,2.9-5.52,5.88-7,9.1c-0.06,0.12-0.11,0.24-0.16,0.38
		l-2.88-8.85c1.58,0.04,2.45-0.6,2.89-2.16c0.18-0.66,0.32-1.31,0.47-2.01c0.05-0.24,0.1-0.49,0.16-0.74
		c0.12,0.03,0.23,0.06,0.35,0.09c0.4,0.1,0.78,0.19,1.16,0.31c0.85,0.27,1.18,0.16,1.71-0.58l0.09-0.12l-0.09-0.12
		c-0.62-0.79-1.2-1.65-1.76-2.47c-1.72-2.53-3.5-5.14-6.61-6.56l-0.16-0.07l-0.1,0.14c-0.09,0.14-0.2,0.27-0.3,0.4
		c-0.24,0.31-0.49,0.62-0.61,0.99c-0.4,1.22-1.37,1.76-2.49,2.3c-1.12,0.54-2.19,1.2-3.23,1.84l-0.08,0.05
		c-1.26,0.78-1.93,2.04-2.57,3.25l-0.22,0.42c-0.89,1.64-1.68,3.37-2.44,5.04c-0.23,0.5-0.45,0.99-0.68,1.49
		c-0.92,1.97-2.48,3.09-4.77,3.41c-0.8,0.11-1.6,0.29-2.37,0.46c-0.35,0.08-0.7,0.15-1.05,0.22l-0.17,0.03l0.01,0.48l0.14,0.04
		c0.15,0.04,0.3,0.09,0.45,0.13c0.34,0.1,0.68,0.21,1.04,0.27c0.85,0.15,1.71,0.3,2.56,0.44c1.24,0.21,2.53,0.43,3.79,0.67
		c3.19,0.62,6.2,1.95,8.97,3.96l0.74,0.54c2.09,1.52,4.25,3.09,6.57,4.35c1.28,0.69,2.11,0.52,2.95-0.6
		c0.24-0.32,0.51-0.63,0.79-0.96c0.07-0.09,0.15-0.17,0.22-0.26l1.81,4.06l3.2-4.43c0.28,0.75,0.26,1.53-0.06,2.45
		c-0.47,1.33-1.37,2.43-2.75,3.36c-0.18,0.12-0.51,0.43-0.52,0.76c-0.04,1.69-0.04,3.41-0.02,5.12c0.03,2.67,1.15,4.78,3.32,6.25
		c0.37,0.25,0.76,0.54,1.19,0.89c0.42,0.34,0.49,0.73,0.21,1.17c-0.4,0.63-0.86,1.24-1.29,1.8c-0.74,0.98-1.75,1.45-2.91,1.35
		c-1.49-0.12-3.01-0.03-4.66,0.27c-1.53,0.28-3.11,0.56-4.58,0.11c-1.55-0.49-3.1-1.07-4.6-1.64c-0.92-0.35-1.88-0.71-2.83-1.05
		c-0.95-0.34-1.79-0.54-2.56-0.61c-0.49-0.05-0.93,0.08-1.28,0.37c-0.37,0.32-0.59,0.81-0.63,1.39l-0.03,0.67
		c-0.03,0.69-0.07,1.41-0.14,2.11c-0.03,0.27-0.11,0.55-0.2,0.87c-0.05,0.17-0.1,0.35-0.15,0.54l-0.06,0.23l0.23,0.03
		c0.45,0.05,0.88,0.1,1.3,0.16c0.9,0.11,1.74,0.22,2.6,0.28c1.66,0.12,3.35,0.21,4.99,0.3l1.62,0.09h0.02
		c0.09,0,0.16-0.03,0.21-0.05c0.02-0.01,0.03-0.02,0.05-0.02c0.08-0.02,0.15-0.05,0.23-0.08c0.15-0.05,0.28-0.11,0.4-0.1
		c0.11,0.01,0.23,0.05,0.36,0.1c0.17,0.06,0.33,0.12,0.52,0.12c0.33-0.01,0.66-0.07,0.97-0.13c0.13-0.02,0.25-0.05,0.38-0.07
		c0.06-0.01,0.12-0.02,0.18-0.04c0.08-0.02,0.15-0.03,0.23-0.04c0.17-0.02,0.36-0.06,0.54-0.1c0.37-0.08,0.74-0.16,0.95-0.05
		c0.51,0.27,0.81,0.07,1.03-0.07c0.09-0.06,0.16-0.1,0.19-0.12c0.57,0,1.21,0.01,1.78-0.17c0.51-0.16,0.98-0.39,1.49-0.64
		c0.12-0.06,0.24-0.12,0.36-0.17l-0.05,0.55l1.26,0.39l-0.25-0.85c0.13-0.04,0.27-0.07,0.4-0.11c0.49-0.13,0.95-0.24,1.16-0.58
		c0.28-0.43,0.64-0.46,1.03-0.49c0.06,0,0.13-0.01,0.19-0.02c0.89-0.1,1.65-0.41,2.52-0.86l0.26-0.13c0.59-0.3,1.18-0.61,1.78-0.89
		c3.24-1.53,5.61-2.9,7.68-4.43c0.16-0.12,0.32-0.23,0.48-0.35c0.41-0.29,0.83-0.59,1.21-0.95c0.2-0.19,0.42-0.33,0.66-0.49
		c0.33-0.21,0.67-0.43,0.95-0.77c0.34-0.41,0.74-0.75,1.17-1.11c0.24-0.21,0.49-0.42,0.72-0.64c2.34-2.23,4.48-4.76,6.35-7.5
		c0.35,0.08,0.42,0.08,0.46-0.09c0.04-0.14,0.07-0.27,0.09-0.4c0.05-0.24,0.1-0.47,0.2-0.64c2.8-4.44,4.82-9.22,5.98-14.21
		c0.2-0.83,0.37-1.69,0.54-2.51c0.06-0.32,0.13-0.64,0.19-0.95l1.05,0.1v-1.3l-0.89-0.1c0.02-0.21,0.04-0.42,0.06-0.62
		C96.29,54.73,96.35,54.13,96.38,53.51 M34.25,36.74l0.34-0.03l-0.37,0.38L34.25,36.74z"/>
	<path class="st0" d="M26.96,62.52c0.13-0.43,0.33-0.67,0.69-0.8c1.02-0.4,1.75-1.14,2.18-2.22l0.12-0.31
		c0.13-0.32,0.26-0.64,0.38-0.97c0.11-0.29,0.24-0.4,0.55-0.45c0.59-0.1,1.18-0.24,1.74-0.38c0.31-0.08,0.61-0.15,0.92-0.22
		c0.36-0.08,0.73-0.14,1.09-0.21l0.37-0.07c0.14-0.02,0.27-0.05,0.4-0.07c0.82-0.13,1.67-0.27,2.33-0.98
		c1.4-1.49,1.47-3.95,0.17-5.6c-0.24-0.3-0.56-0.52-0.87-0.73c-0.1-0.07-0.21-0.14-0.31-0.21c-0.47-0.35-0.95-0.69-1.43-1.03
		c-0.69-0.5-1.38-0.99-2.06-1.5c-0.43-0.32-0.86-0.65-1.29-0.98c-0.72-0.56-1.47-1.13-2.24-1.66c-0.55-0.38-1.23-0.58-1.82-0.73
		c-0.96-0.24-1.87,0.08-2.72,0.48c-1.46,0.68-2.7,0.74-3.91,0.17c-0.6-0.28-1.21-0.55-1.81-0.82l-0.27-0.12
		c-1.26-0.56-2.56-1.14-3.96-1.25l-0.14-0.01l-0.06,0.13c-0.68,1.56,0.06,2.67,0.76,3.75c0.24,0.36,0.48,0.73,0.66,1.1
		c0.08,0.17,0.27,0.22,0.51,0.27c0.03,0.01,0.06,0.01,0.1,0.02c-0.01,0.01-0.01,0.02-0.02,0.03c-0.1,0.18-0.2,0.34-0.32,0.46
		c-0.36,0.34-0.77,0.65-1.16,0.95l-0.23,0.18c-0.09,0.07-0.16,0.11-0.2,0.12c-0.17-0.07-0.41-0.14-0.59-0.02
		c-0.17,0.12-0.19,0.33-0.19,0.53c-0.73,0.06-1.27,0.51-1.75,0.92c-0.12,0.1-0.23,0.2-0.35,0.29c-0.21,0.16-0.41,0.27-0.64,0.34
		l0.06-0.05l-0.25-0.53l-0.84,0.38l0.27-0.37l-0.44,0.03c-0.15,0.01-0.29,0-0.43,0c-0.32-0.01-0.59-0.02-0.74,0.16
		c-0.26,0.32-0.52,0.27-0.8,0.22c-0.07-0.01-0.14-0.03-0.21-0.03c-0.05-0.05-0.09-0.09-0.13-0.13c-0.1-0.11-0.19-0.21-0.33-0.21
		c-0.81-0.04-1.66-0.06-2.52-0.07h0c-0.18,0-0.32,0.16-0.42,0.3c-0.08,0.11-0.04,0.25,0.13,0.42c-0.03,0-0.07,0.01-0.1,0.01
		c-0.19-0.48-0.63-0.42-0.9-0.39c-0.33,0.04-0.46,0.04-0.55-0.2l-0.65-1.64l0.26,1.74c0.04,0.27,0.08,0.51,0.12,0.74
		c0.08,0.47,0.14,0.88,0.18,1.28c0.05,0.48,0.08,0.96,0.1,1.44c0.06,0.97,0.12,1.98,0.33,2.94c0.07,0.31,0.09,0.63,0.11,0.97
		c0.03,0.6,0.07,1.21,0.38,1.75l-0.02,0.05C4.13,59.97,4,60.37,4.21,60.59c0.35,0.36,0.43,0.68,0.26,1.08l-0.11,0.27l0.3,0.01
		c0.09,0,0.13,0.02,0.14,0.03C4.81,62,4.82,62.03,4.8,62.11l-0.02,0.12c-0.03,0.18-0.07,0.38,0,0.57c0.12,0.33,0.27,0.66,0.42,0.98
		c0.11,0.24,0.21,0.47,0.31,0.71c0.14,0.34,0.27,0.68,0.4,1.01c0.21,0.55,0.43,1.12,0.68,1.66c0.56,1.22,1.14,2.45,1.71,3.64
		c0.26,0.55,0.52,1.09,0.77,1.64l-0.68,0.38l0.27,0.19c0.09,0.06,0.16,0.12,0.22,0.17c0.15,0.13,0.28,0.24,0.45,0.22
		c0.28-0.01,0.37,0.1,0.56,0.39l0.08,0.13c0.59,0.88,1.19,1.75,1.8,2.62c0.45,0.65,0.9,1.3,1.35,1.96c0.33,0.49,0.8,0.73,1.41,0.73
		c0.05,0,0.11,0,0.16-0.01c0.08,0,0.16-0.01,0.25-0.01c0.21-0.01,0.43-0.02,0.65-0.06c1.06-0.21,2.16-0.51,2.87-1.6
		c0.69-1.07,1.41-2.08,2.22-3.2c0.21-0.29,0.44-0.56,0.66-0.83c0.19-0.23,0.38-0.46,0.56-0.7l0.07-0.1c0.74-0.98,1.5-1.99,2.22-3.01
		l0.13-0.18c0.39-0.55,0.79-1.12,1.01-1.76c0.43-1.24,0.81-2.52,1.18-3.76C26.65,63.53,26.8,63.02,26.96,62.52"/>
	<path class="st0" d="M36.49,93.93c-0.02-0.2-0.04-0.42-0.12-0.61c-0.26-0.65-0.55-1.25-0.81-1.77c-0.04-0.09-0.09-0.18-0.13-0.27
		c-0.15-0.34-0.3-0.68-0.58-0.91c-1.16-0.94-2.53-1.33-4.08-1.17l-0.22,0.02c-0.78,0.08-1.59,0.17-2.34,0.04
		c-0.76-0.13-1.51-0.22-2.32,0.22l-0.18,0.1l0.16,0.3c0.24,0.47,0.52,1,1.26,0.9c0.02,0.01,0.06,0.04,0.09,0.06
		c-0.03,0.1-0.04,0.21,0.01,0.32c0.08,0.15,0.23,0.18,0.34,0.2c0.05,0.01,0.1,0.02,0.12,0.03c0.06,0.03,0.11,0.07,0.17,0.1
		c0.29,0.18,0.64,0.41,1.11,0.16c0.06,0.03,0.14,0.1,0.2,0.14c0.06,0.05,0.11,0.09,0.17,0.12c0.03,0.02,0.06,0.05,0.09,0.07
		c0.06,0.06,0.13,0.12,0.23,0.16c0.32,0.13,0.64,0.25,0.96,0.38c0.39,0.15,0.77,0.3,1.15,0.46c0.21,0.09,0.43,0.18,0.64,0.27
		c1.22,0.52,2.49,1.06,3.9,1.16l0.26,0.02l-0.04-0.25C36.51,94.11,36.5,94.02,36.49,93.93"/>
</g>
</svg>